<svg width="78" height="79" viewBox="0 0 78 79" fill="none" xmlns="http://www.w3.org/2000/svg">
<path d="M0 35H2V43H0V35Z" fill="#D9D9D9"/>
<path d="M76 36H78V44H76V36Z" fill="#D9D9D9"/>
<path d="M31.0335 4.24317C31.3632 3.20513 32.327 2.5 33.4162 2.5H33.4192C34.5084 2.5 35.4722 3.20513 35.8019 4.24317C36.0442 5.00587 37.0382 5.88727 38.7199 6.65163C39.4671 6.99128 40.1968 7.23803 40.7452 7.4C41.0166 7.48016 41.2368 7.53753 41.3837 7.57372C41.457 7.59178 41.5115 7.60444 41.5446 7.61193L41.5772 7.61919C42.7201 7.85802 43.5455 8.85618 43.5654 10.0237C43.5849 11.1674 42.8263 12.1751 41.7292 12.4767C41.7153 12.4895 41.5434 12.5925 41.29 12.9609C40.9747 13.4191 40.7128 14.0438 40.6058 14.6735C40.4966 15.3157 40.5794 15.7587 40.6925 15.9937C40.7622 16.1384 40.8932 16.3417 41.4067 16.4772L31.0335 4.24317ZM31.0335 4.24317C30.7913 5.00587 29.7972 5.88727 28.1155 6.65163M31.0335 4.24317L28.1155 6.65163M9.78899 10.7012C9.16328 9.51556 9.5842 8.04739 10.7431 7.37336C11.7118 6.80994 12.7564 6.68602 13.7618 6.97822C14.5159 7.19738 15.1456 7.63741 15.4634 7.85942C15.4791 7.87041 15.4941 7.88086 15.5082 7.89073C16.2593 8.41358 16.6142 8.64762 17.2291 8.69215L9.78899 10.7012ZM9.78899 10.7012C11.1983 13.3718 12.3857 16.0038 13.6079 18.7144L13.6183 18.7375C14.8288 21.4224 16.0746 24.1853 17.5639 27.0058C17.9967 27.8256 18.8476 28.3385 19.7746 28.3385M9.78899 10.7012L19.7746 28.3385M19.7746 28.3385H33.4182H47.0618C47.989 28.3385 48.84 27.8254 49.2728 27.0054M19.7746 28.3385L49.2728 27.0054M49.2728 27.0054C50.759 24.1891 52.0028 21.4305 53.2114 18.75L53.2278 18.7137C54.4499 16.0033 55.6375 13.3716 57.0472 10.7017C57.6732 9.51598 57.2524 8.04751 56.0933 7.37337M49.2728 27.0054L56.0933 7.37337M56.0933 7.37337C55.1246 6.80993 54.08 6.68602 53.0746 6.97822M56.0933 7.37337L53.0746 6.97822M44.3869 9.11309C44.9484 8.39773 45.8541 8.04372 46.7519 8.1887C47.294 8.27623 47.6891 8.43621 47.9835 8.57702C48.0435 8.6057 48.0998 8.63385 48.1336 8.65075C48.1733 8.67054 48.1929 8.68021 48.2101 8.68843C48.2137 8.69015 48.2167 8.69156 48.2193 8.69275C48.2954 8.70863 48.6488 8.76149 49.6072 8.69215L44.3869 9.11309ZM44.3869 9.11309C43.8254 9.82846 43.6966 10.7923 44.0506 11.63M44.3869 9.11309L44.0506 11.63M44.0506 11.63C44.6349 13.0123 44.4621 14.5389 43.8662 15.5225M44.0506 11.63L43.8662 15.5225M28.1155 6.65163C27.3683 6.99128 26.6386 7.23803 26.0902 7.4M28.1155 6.65163L26.0902 7.4M26.0902 7.4C25.8188 7.48016 25.5986 7.53753 25.4517 7.57372M26.0902 7.4L25.4517 7.57372M25.4517 7.57372C25.3784 7.59178 25.3239 7.60444 25.2908 7.61193M25.4517 7.57372L25.2908 7.61193M25.2908 7.61193L25.2577 7.61927M25.2908 7.61193L25.2577 7.61927M25.2577 7.61927C25.2556 7.61974 25.2544 7.62 25.2541 7.62005M25.2577 7.61927L25.2541 7.62005M25.2541 7.62005L25.2541 7.62006L25.2541 7.62005ZM53.0746 6.97822C52.3205 7.19738 51.6908 7.63741 51.373 7.85942M53.0746 6.97822L51.373 7.85942M51.373 7.85942C51.3573 7.8704 51.3424 7.88086 51.3282 7.89072M51.373 7.85942L51.3282 7.89072M51.3282 7.89072C50.5771 8.41358 50.2222 8.64762 49.6073 8.69215L51.3282 7.89072ZM43.8662 15.5225C43.3554 16.3657 42.5981 16.7917 41.4068 16.4773L43.8662 15.5225ZM17.9688 47.1194C16.3106 48.9904 16.3107 48.9905 16.311 48.9907L16.3119 48.9916L16.3159 48.9951L16.3318 49.0091L16.3945 49.0647L16.6394 49.2819L17.5691 50.1066C18.3698 50.8173 19.5133 51.8325 20.8837 53.0509C23.6248 55.4878 27.2732 58.7364 30.904 61.9845C34.5362 65.2338 38.1453 68.4778 40.81 70.9074C42.1445 72.1241 43.2309 73.1264 43.9623 73.8199C44.3043 74.1441 44.5484 74.3818 44.6994 74.5353C45.1498 75.1922 45.9059 75.623 46.7625 75.623H63.9553C64.9585 75.623 65.8645 75.0234 66.2565 74.0999C66.6485 73.1765 66.4506 72.1082 65.7537 71.3865L50.8773 55.9797C51.341 55.7767 51.7762 55.558 52.1802 55.3223L52.1837 55.3202C54.3037 54.0788 56.0132 52.4355 57.2514 50.3688C58.5434 48.2399 59.1372 45.7821 59.1372 43.1058C59.1372 40.0251 58.3661 37.2357 56.6828 34.891L56.68 34.887C55.042 32.615 52.8501 31.0217 50.168 30.1803C47.6423 29.3764 44.2049 29.0386 40.0369 29.0386H17.9698C16.5891 29.0386 15.4698 30.1579 15.4698 31.5386V47.0485C15.4684 47.0969 15.4685 47.1455 15.4699 47.1941C15.4905 47.8832 15.7947 48.5332 16.3106 48.9904L17.9688 47.1194ZM25.4286 16.4773C24.2373 16.7917 23.48 16.3657 22.9692 15.5225C22.3733 14.5389 22.2005 13.0123 22.7848 11.63C23.139 10.7919 23.0099 9.82753 22.4477 9.11209C21.8855 8.39665 20.9791 8.04314 20.0809 8.18911C19.5394 8.27713 19.1448 8.43729 18.8509 8.57797C18.7947 8.60491 18.7416 8.6314 18.7075 8.64845L18.7012 8.65157C18.6617 8.6713 18.6423 8.68093 18.6252 8.68907C18.622 8.6906 18.6193 8.6919 18.6169 8.69299C18.5406 8.70884 18.1871 8.76145 17.2292 8.69215L25.4286 16.4773ZM18.6336 8.68887C18.6338 8.68895 18.6309 8.68987 18.6244 8.69138C18.6302 8.68954 18.6335 8.68878 18.6336 8.68887ZM48.2026 8.68862C48.2028 8.68854 48.2061 8.6893 48.2121 8.69117C48.2054 8.68964 48.2025 8.68871 48.2026 8.68862ZM31.2586 75.621C32.2393 75.621 33.1294 75.0477 33.5349 74.1547C33.9404 73.2618 33.7864 72.2143 33.141 71.4759L19.6174 56.0019C18.9273 55.2122 17.8176 54.9372 16.8386 55.3133C15.8595 55.6893 15.2193 56.6365 15.2353 57.6851L15.4711 73.1591C15.4919 74.5248 16.6049 75.621 17.9708 75.621H31.2586ZM40.2138 45.2501L37.3741 42.4606C38.3344 42.4738 39.0669 42.5532 39.6047 42.6709C40.2138 42.8041 40.4212 42.9536 40.4408 42.9698L40.4526 42.9795C40.6354 43.1286 40.8504 43.387 40.8504 44.1404C40.8504 44.4402 40.7823 44.6746 40.6245 44.9086C40.5812 44.9464 40.5247 44.9945 40.4551 45.0524C40.382 45.1134 40.3007 45.18 40.2138 45.2501ZM40.5472 45.0144C40.5475 45.014 40.5479 45.0135 40.5482 45.0131L40.5472 45.0144Z" fill="#FCC954" stroke="#FCC954" stroke-width="5" stroke-miterlimit="22.9256" stroke-linecap="round" stroke-linejoin="round"/>
<path d="M17.9698 47.1184V31.5386H40.0369C44.1273 31.5386 47.2593 31.877 49.4148 32.5641C51.5794 33.2421 53.3258 34.5094 54.652 36.349C55.9792 38.1976 56.6372 40.4533 56.6372 43.1058C56.6372 45.4098 56.1283 47.4035 55.1105 49.0778C54.1028 50.7622 52.7061 52.1172 50.9204 53.1629C49.7927 53.8208 48.2368 54.3728 46.2718 54.8091L63.9553 73.123H46.7625C47.3097 73.123 17.9688 47.1194 17.9688 47.1194L17.9698 47.1184ZM33.4162 5C32.2351 8.7184 25.7696 10.0663 25.7696 10.0663C28.429 10.7161 30.8102 17.6421 26.0668 18.8944C21.3235 20.1466 18.7094 14.8506 20.482 10.6567C19.5277 10.8118 19.8048 11.385 17.0487 11.1856C14.2926 10.9861 13.571 8.62068 12 9.53442C14.9023 15.0339 16.8713 20.34 19.7746 25.8385H33.4182H47.0618C49.9641 20.339 51.9332 15.0329 54.8364 9.53442C53.2654 8.62068 52.5438 10.9861 49.7877 11.1856C47.0316 11.385 47.3077 10.8108 46.3534 10.6567C48.126 14.8506 45.5119 20.1466 40.7686 18.8944C36.0252 17.6421 38.4064 10.7161 41.0658 10.0663C41.0658 10.0663 34.6003 8.7184 33.4192 5H33.4162ZM31.2586 73.121H17.9708L17.735 57.647L31.2586 73.121ZM39.9583 48.5046C40.1589 48.5046 42.3094 46.8182 42.5119 46.5603C43.0692 45.852 43.3504 45.0501 43.3504 44.1404C43.3504 42.7955 42.911 41.7589 42.0333 41.0426C41.1555 40.3172 39.5089 39.9586 37.0853 39.9586H31.2597L39.9594 48.5046H39.9583Z" fill="#FFF6E8" stroke="#28050B" stroke-width="2.66783" stroke-miterlimit="22.9256" stroke-linecap="round" stroke-linejoin="round"/>
<path d="M31.5237 73.474H18.2358L18 58L31.5237 73.474Z" fill="#28050B" stroke="#28050B" stroke-width="2.66783" stroke-miterlimit="22.9256" stroke-linecap="round" stroke-linejoin="round"/>
</svg>
