<svg width="287" height="79" viewBox="0 0 287 79" fill="none" xmlns="http://www.w3.org/2000/svg">
<mask id="path-1-outside-1_1_57" maskUnits="userSpaceOnUse" x="-1" y="0" width="288" height="79" fill="black">
<rect fill="white" x="-1" width="288" height="79"/>
<path d="M10.9698 47.1184V31.5386H33.0369C37.1273 31.5386 40.2593 31.877 42.4148 32.5641C44.5794 33.2421 46.3258 34.5094 47.652 36.349C48.9792 38.1976 49.6372 40.4533 49.6372 43.1058C49.6372 45.4098 49.1283 47.4035 48.1105 49.0778C47.1028 50.7622 45.7061 52.1172 43.9204 53.1629C42.7927 53.8208 41.2368 54.3728 39.2718 54.8091L56.9553 73.123H39.7625C40.3097 73.123 10.9688 47.1194 10.9688 47.1194L10.9698 47.1184ZM26.4162 5C25.2351 8.7184 18.7696 10.0663 18.7696 10.0663C21.429 10.7161 23.8102 17.6421 19.0668 18.8944C14.3235 20.1466 11.7094 14.8506 13.482 10.6567C12.5277 10.8118 12.8048 11.385 10.0487 11.1856C7.29258 10.9861 6.57104 8.62068 5 9.53442C7.90225 15.0339 9.8713 20.34 12.7746 25.8385H26.4182H40.0618C42.9641 20.339 44.9332 15.0329 47.8364 9.53442C46.2654 8.62068 45.5438 10.9861 42.7877 11.1856C40.0316 11.385 40.3077 10.8108 39.3534 10.6567C41.126 14.8506 38.5119 20.1466 33.7686 18.8944C29.0252 17.6421 31.4064 10.7161 34.0658 10.0663C34.0658 10.0663 27.6003 8.7184 26.4192 5H26.4162ZM257.147 56.6184C262.369 61.3372 268.815 60.3821 268.815 64.2003C268.815 66.2151 266.227 66.7984 265.192 66.7984C256.535 66.7984 257.1 58.3693 253.76 58.3693C252.349 58.3693 251.784 59.8008 251.784 61.2324C251.784 63.9363 252.866 69.5557 255.124 70.9873C257.805 72.6304 263.121 73.532 266.226 73.532C277.187 73.532 281.703 66.5335 281.703 60.3307C281.703 56.3544 280.245 53.7039 277.328 51.5299C271.871 47.4478 265.426 48.561 265.426 44.3721C265.426 42.4631 266.978 41.7216 268.437 41.7216C273.329 41.7216 275.164 47.7651 278.315 47.7651C280.056 47.7651 281.091 45.9629 281.091 44.1596C281.091 39.7068 277.515 35.6237 275.916 35.6237C274.928 35.6237 274.269 36.3661 273.611 36.3661C272.906 36.3661 269.519 34.8822 266.508 34.8822C257.382 34.8822 252.677 41.7216 252.677 47.2352C252.677 51.0524 254.558 54.2862 257.146 56.6194L257.147 56.6184ZM227.545 54.5512C227.545 55.6644 229.003 56.3 229.803 56.3C233.003 56.3 238.178 48.0825 238.178 41.8798C238.178 38.2742 235.967 34.8812 232.58 34.8812C229.428 34.8812 227.17 37.5317 227.17 41.0839C227.17 45.9085 230.792 46.2268 230.792 48.1883C230.792 51.5289 227.546 53.4369 227.546 54.5501L227.545 54.5512ZM208.334 73.531C217.93 73.531 226.869 66.0025 226.869 54.6035C226.869 47.7641 221.883 34.8812 208.898 34.8812C198.643 34.8812 190.692 42.8338 190.692 54.0736C190.692 65.3659 198.407 73.531 208.333 73.531H208.334ZM214.779 59.959C214.779 62.8221 213.556 65.6318 210.687 65.6318C205.606 65.6318 202.783 52.9604 202.783 48.4542C202.783 45.8561 204.1 42.7814 206.735 42.7814C212.239 42.7814 214.779 55.1344 214.779 59.959ZM144.836 54.0736C144.836 64.7302 152.927 73.531 162.807 73.531C168.358 73.531 171.651 70.4564 173.251 70.4564C175.603 70.4564 177.768 65.5784 177.768 63.2462C177.768 61.9205 177.11 60.1182 175.745 60.1182C174.287 60.1182 173.393 63.7761 167.418 63.7761C160.832 63.7761 157.115 57.0959 157.115 49.2501C157.115 46.3336 158.621 42.5165 162.244 42.5165C170.617 42.5165 169.394 51.9006 174.239 51.9006C177.015 51.9006 178.615 49.3559 178.615 46.3336C178.615 40.4482 176.075 37.1086 174.098 37.1086C173.298 37.1086 173.016 37.4793 171.981 37.4793C170.758 37.4793 167.794 34.8812 163.184 34.8812C153.917 34.8812 144.837 43.2045 144.837 54.0736H144.836ZM99.626 54.0736C99.626 64.7302 107.717 73.531 117.597 73.531C123.149 73.531 126.441 70.4564 128.041 70.4564C130.393 70.4564 132.558 65.5784 132.558 63.2462C132.558 61.9205 131.9 60.1182 130.535 60.1182C129.077 60.1182 128.183 63.7761 122.209 63.7761C115.622 63.7761 111.906 57.0959 111.906 49.2501C111.906 46.3336 113.411 42.5165 117.034 42.5165C125.407 42.5165 124.185 51.9006 129.03 51.9006C131.805 51.9006 133.405 49.3559 133.405 46.3336C133.405 40.4482 130.865 37.1086 128.889 37.1086C128.089 37.1086 127.807 37.4793 126.772 37.4793C125.548 37.4793 122.584 34.8812 117.974 34.8812C108.707 34.8812 99.626 43.2045 99.626 54.0736ZM72.2768 56.8299C72.2768 64.2526 71.8062 66.2141 71.2419 66.9566C70.4891 67.964 68.8898 68.229 68.8898 69.9255C68.8898 73.3185 74.8173 73.3718 76.7934 73.3718C87.0964 73.3718 87.5197 70.9863 87.5197 69.3955C87.5197 67.7524 86.391 67.4865 85.215 66.6916C84.2738 66.0559 83.7094 66.2675 83.7094 56.8299V51.5813C83.7094 47.8699 83.7568 43.0987 84.6507 41.9322C85.7329 40.554 87.5207 40.6598 87.5207 38.7507C87.5207 35.1451 81.7343 35.0394 78.9117 35.0394C77.9704 35.0394 68.3739 35.0394 68.3739 38.8565C68.3739 40.8713 70.2089 41.0305 71.2902 42.5678C71.8072 43.3103 72.2778 44.8476 72.2778 51.5803V56.8289L72.2768 56.8299ZM24.2586 73.121H10.9708L10.735 57.647L24.2586 73.121ZM32.9583 48.5046C33.1589 48.5046 35.3094 46.8182 35.5119 46.5603C36.0692 45.852 36.3504 45.0501 36.3504 44.1404C36.3504 42.7955 35.911 41.7589 35.0333 41.0426C34.1555 40.3172 32.5089 39.9586 30.0853 39.9586H24.2597L32.9594 48.5046H32.9583Z"/>
</mask>
<path d="M10.9698 47.1184V31.5386H33.0369C37.1273 31.5386 40.2593 31.877 42.4148 32.5641C44.5794 33.2421 46.3258 34.5094 47.652 36.349C48.9792 38.1976 49.6372 40.4533 49.6372 43.1058C49.6372 45.4098 49.1283 47.4035 48.1105 49.0778C47.1028 50.7622 45.7061 52.1172 43.9204 53.1629C42.7927 53.8208 41.2368 54.3728 39.2718 54.8091L56.9553 73.123H39.7625C40.3097 73.123 10.9688 47.1194 10.9688 47.1194L10.9698 47.1184ZM26.4162 5C25.2351 8.7184 18.7696 10.0663 18.7696 10.0663C21.429 10.7161 23.8102 17.6421 19.0668 18.8944C14.3235 20.1466 11.7094 14.8506 13.482 10.6567C12.5277 10.8118 12.8048 11.385 10.0487 11.1856C7.29258 10.9861 6.57104 8.62068 5 9.53442C7.90225 15.0339 9.8713 20.34 12.7746 25.8385H26.4182H40.0618C42.9641 20.339 44.9332 15.0329 47.8364 9.53442C46.2654 8.62068 45.5438 10.9861 42.7877 11.1856C40.0316 11.385 40.3077 10.8108 39.3534 10.6567C41.126 14.8506 38.5119 20.1466 33.7686 18.8944C29.0252 17.6421 31.4064 10.7161 34.0658 10.0663C34.0658 10.0663 27.6003 8.7184 26.4192 5H26.4162ZM257.147 56.6184C262.369 61.3372 268.815 60.3821 268.815 64.2003C268.815 66.2151 266.227 66.7984 265.192 66.7984C256.535 66.7984 257.1 58.3693 253.76 58.3693C252.349 58.3693 251.784 59.8008 251.784 61.2324C251.784 63.9363 252.866 69.5557 255.124 70.9873C257.805 72.6304 263.121 73.532 266.226 73.532C277.187 73.532 281.703 66.5335 281.703 60.3307C281.703 56.3544 280.245 53.7039 277.328 51.5299C271.871 47.4478 265.426 48.561 265.426 44.3721C265.426 42.4631 266.978 41.7216 268.437 41.7216C273.329 41.7216 275.164 47.7651 278.315 47.7651C280.056 47.7651 281.091 45.9629 281.091 44.1596C281.091 39.7068 277.515 35.6237 275.916 35.6237C274.928 35.6237 274.269 36.3661 273.611 36.3661C272.906 36.3661 269.519 34.8822 266.508 34.8822C257.382 34.8822 252.677 41.7216 252.677 47.2352C252.677 51.0524 254.558 54.2862 257.146 56.6194L257.147 56.6184ZM227.545 54.5512C227.545 55.6644 229.003 56.3 229.803 56.3C233.003 56.3 238.178 48.0825 238.178 41.8798C238.178 38.2742 235.967 34.8812 232.58 34.8812C229.428 34.8812 227.17 37.5317 227.17 41.0839C227.17 45.9085 230.792 46.2268 230.792 48.1883C230.792 51.5289 227.546 53.4369 227.546 54.5501L227.545 54.5512ZM208.334 73.531C217.93 73.531 226.869 66.0025 226.869 54.6035C226.869 47.7641 221.883 34.8812 208.898 34.8812C198.643 34.8812 190.692 42.8338 190.692 54.0736C190.692 65.3659 198.407 73.531 208.333 73.531H208.334ZM214.779 59.959C214.779 62.8221 213.556 65.6318 210.687 65.6318C205.606 65.6318 202.783 52.9604 202.783 48.4542C202.783 45.8561 204.1 42.7814 206.735 42.7814C212.239 42.7814 214.779 55.1344 214.779 59.959ZM144.836 54.0736C144.836 64.7302 152.927 73.531 162.807 73.531C168.358 73.531 171.651 70.4564 173.251 70.4564C175.603 70.4564 177.768 65.5784 177.768 63.2462C177.768 61.9205 177.11 60.1182 175.745 60.1182C174.287 60.1182 173.393 63.7761 167.418 63.7761C160.832 63.7761 157.115 57.0959 157.115 49.2501C157.115 46.3336 158.621 42.5165 162.244 42.5165C170.617 42.5165 169.394 51.9006 174.239 51.9006C177.015 51.9006 178.615 49.3559 178.615 46.3336C178.615 40.4482 176.075 37.1086 174.098 37.1086C173.298 37.1086 173.016 37.4793 171.981 37.4793C170.758 37.4793 167.794 34.8812 163.184 34.8812C153.917 34.8812 144.837 43.2045 144.837 54.0736H144.836ZM99.626 54.0736C99.626 64.7302 107.717 73.531 117.597 73.531C123.149 73.531 126.441 70.4564 128.041 70.4564C130.393 70.4564 132.558 65.5784 132.558 63.2462C132.558 61.9205 131.9 60.1182 130.535 60.1182C129.077 60.1182 128.183 63.7761 122.209 63.7761C115.622 63.7761 111.906 57.0959 111.906 49.2501C111.906 46.3336 113.411 42.5165 117.034 42.5165C125.407 42.5165 124.185 51.9006 129.03 51.9006C131.805 51.9006 133.405 49.3559 133.405 46.3336C133.405 40.4482 130.865 37.1086 128.889 37.1086C128.089 37.1086 127.807 37.4793 126.772 37.4793C125.548 37.4793 122.584 34.8812 117.974 34.8812C108.707 34.8812 99.626 43.2045 99.626 54.0736ZM72.2768 56.8299C72.2768 64.2526 71.8062 66.2141 71.2419 66.9566C70.4891 67.964 68.8898 68.229 68.8898 69.9255C68.8898 73.3185 74.8173 73.3718 76.7934 73.3718C87.0964 73.3718 87.5197 70.9863 87.5197 69.3955C87.5197 67.7524 86.391 67.4865 85.215 66.6916C84.2738 66.0559 83.7094 66.2675 83.7094 56.8299V51.5813C83.7094 47.8699 83.7568 43.0987 84.6507 41.9322C85.7329 40.554 87.5207 40.6598 87.5207 38.7507C87.5207 35.1451 81.7343 35.0394 78.9117 35.0394C77.9704 35.0394 68.3739 35.0394 68.3739 38.8565C68.3739 40.8713 70.2089 41.0305 71.2902 42.5678C71.8072 43.3103 72.2778 44.8476 72.2778 51.5803V56.8289L72.2768 56.8299ZM24.2586 73.121H10.9708L10.735 57.647L24.2586 73.121ZM32.9583 48.5046C33.1589 48.5046 35.3094 46.8182 35.5119 46.5603C36.0692 45.852 36.3504 45.0501 36.3504 44.1404C36.3504 42.7955 35.911 41.7589 35.0333 41.0426C34.1555 40.3172 32.5089 39.9586 30.0853 39.9586H24.2597L32.9594 48.5046H32.9583Z" fill="#FCC954"/>
<path d="M10.9698 47.1184V31.5386H33.0369C37.1273 31.5386 40.2593 31.877 42.4148 32.5641C44.5794 33.2421 46.3258 34.5094 47.652 36.349C48.9792 38.1976 49.6372 40.4533 49.6372 43.1058C49.6372 45.4098 49.1283 47.4035 48.1105 49.0778C47.1028 50.7622 45.7061 52.1172 43.9204 53.1629C42.7927 53.8208 41.2368 54.3728 39.2718 54.8091L56.9553 73.123H39.7625C40.3097 73.123 10.9688 47.1194 10.9688 47.1194L10.9698 47.1184ZM26.4162 5C25.2351 8.7184 18.7696 10.0663 18.7696 10.0663C21.429 10.7161 23.8102 17.6421 19.0668 18.8944C14.3235 20.1466 11.7094 14.8506 13.482 10.6567C12.5277 10.8118 12.8048 11.385 10.0487 11.1856C7.29258 10.9861 6.57104 8.62068 5 9.53442C7.90225 15.0339 9.8713 20.34 12.7746 25.8385H26.4182H40.0618C42.9641 20.339 44.9332 15.0329 47.8364 9.53442C46.2654 8.62068 45.5438 10.9861 42.7877 11.1856C40.0316 11.385 40.3077 10.8108 39.3534 10.6567C41.126 14.8506 38.5119 20.1466 33.7686 18.8944C29.0252 17.6421 31.4064 10.7161 34.0658 10.0663C34.0658 10.0663 27.6003 8.7184 26.4192 5H26.4162ZM257.147 56.6184C262.369 61.3372 268.815 60.3821 268.815 64.2003C268.815 66.2151 266.227 66.7984 265.192 66.7984C256.535 66.7984 257.1 58.3693 253.76 58.3693C252.349 58.3693 251.784 59.8008 251.784 61.2324C251.784 63.9363 252.866 69.5557 255.124 70.9873C257.805 72.6304 263.121 73.532 266.226 73.532C277.187 73.532 281.703 66.5335 281.703 60.3307C281.703 56.3544 280.245 53.7039 277.328 51.5299C271.871 47.4478 265.426 48.561 265.426 44.3721C265.426 42.4631 266.978 41.7216 268.437 41.7216C273.329 41.7216 275.164 47.7651 278.315 47.7651C280.056 47.7651 281.091 45.9629 281.091 44.1596C281.091 39.7068 277.515 35.6237 275.916 35.6237C274.928 35.6237 274.269 36.3661 273.611 36.3661C272.906 36.3661 269.519 34.8822 266.508 34.8822C257.382 34.8822 252.677 41.7216 252.677 47.2352C252.677 51.0524 254.558 54.2862 257.146 56.6194L257.147 56.6184ZM227.545 54.5512C227.545 55.6644 229.003 56.3 229.803 56.3C233.003 56.3 238.178 48.0825 238.178 41.8798C238.178 38.2742 235.967 34.8812 232.58 34.8812C229.428 34.8812 227.17 37.5317 227.17 41.0839C227.17 45.9085 230.792 46.2268 230.792 48.1883C230.792 51.5289 227.546 53.4369 227.546 54.5501L227.545 54.5512ZM208.334 73.531C217.93 73.531 226.869 66.0025 226.869 54.6035C226.869 47.7641 221.883 34.8812 208.898 34.8812C198.643 34.8812 190.692 42.8338 190.692 54.0736C190.692 65.3659 198.407 73.531 208.333 73.531H208.334ZM214.779 59.959C214.779 62.8221 213.556 65.6318 210.687 65.6318C205.606 65.6318 202.783 52.9604 202.783 48.4542C202.783 45.8561 204.1 42.7814 206.735 42.7814C212.239 42.7814 214.779 55.1344 214.779 59.959ZM144.836 54.0736C144.836 64.7302 152.927 73.531 162.807 73.531C168.358 73.531 171.651 70.4564 173.251 70.4564C175.603 70.4564 177.768 65.5784 177.768 63.2462C177.768 61.9205 177.11 60.1182 175.745 60.1182C174.287 60.1182 173.393 63.7761 167.418 63.7761C160.832 63.7761 157.115 57.0959 157.115 49.2501C157.115 46.3336 158.621 42.5165 162.244 42.5165C170.617 42.5165 169.394 51.9006 174.239 51.9006C177.015 51.9006 178.615 49.3559 178.615 46.3336C178.615 40.4482 176.075 37.1086 174.098 37.1086C173.298 37.1086 173.016 37.4793 171.981 37.4793C170.758 37.4793 167.794 34.8812 163.184 34.8812C153.917 34.8812 144.837 43.2045 144.837 54.0736H144.836ZM99.626 54.0736C99.626 64.7302 107.717 73.531 117.597 73.531C123.149 73.531 126.441 70.4564 128.041 70.4564C130.393 70.4564 132.558 65.5784 132.558 63.2462C132.558 61.9205 131.9 60.1182 130.535 60.1182C129.077 60.1182 128.183 63.7761 122.209 63.7761C115.622 63.7761 111.906 57.0959 111.906 49.2501C111.906 46.3336 113.411 42.5165 117.034 42.5165C125.407 42.5165 124.185 51.9006 129.03 51.9006C131.805 51.9006 133.405 49.3559 133.405 46.3336C133.405 40.4482 130.865 37.1086 128.889 37.1086C128.089 37.1086 127.807 37.4793 126.772 37.4793C125.548 37.4793 122.584 34.8812 117.974 34.8812C108.707 34.8812 99.626 43.2045 99.626 54.0736ZM72.2768 56.8299C72.2768 64.2526 71.8062 66.2141 71.2419 66.9566C70.4891 67.964 68.8898 68.229 68.8898 69.9255C68.8898 73.3185 74.8173 73.3718 76.7934 73.3718C87.0964 73.3718 87.5197 70.9863 87.5197 69.3955C87.5197 67.7524 86.391 67.4865 85.215 66.6916C84.2738 66.0559 83.7094 66.2675 83.7094 56.8299V51.5813C83.7094 47.8699 83.7568 43.0987 84.6507 41.9322C85.7329 40.554 87.5207 40.6598 87.5207 38.7507C87.5207 35.1451 81.7343 35.0394 78.9117 35.0394C77.9704 35.0394 68.3739 35.0394 68.3739 38.8565C68.3739 40.8713 70.2089 41.0305 71.2902 42.5678C71.8072 43.3103 72.2778 44.8476 72.2778 51.5803V56.8289L72.2768 56.8299ZM24.2586 73.121H10.9708L10.735 57.647L24.2586 73.121ZM32.9583 48.5046C33.1589 48.5046 35.3094 46.8182 35.5119 46.5603C36.0692 45.852 36.3504 45.0501 36.3504 44.1404C36.3504 42.7955 35.911 41.7589 35.0333 41.0426C34.1555 40.3172 32.5089 39.9586 30.0853 39.9586H24.2597L32.9594 48.5046H32.9583Z" stroke="#FCC954" stroke-width="10" stroke-miterlimit="22.9256" stroke-linecap="round" stroke-linejoin="round" mask="url(#path-1-outside-1_1_57)"/>
<path d="M10.9698 47.1184V31.5386H33.0369C37.1273 31.5386 40.2593 31.877 42.4148 32.5641C44.5794 33.2421 46.3258 34.5094 47.652 36.349C48.9792 38.1976 49.6372 40.4533 49.6372 43.1058C49.6372 45.4098 49.1283 47.4035 48.1105 49.0778C47.1028 50.7622 45.7061 52.1172 43.9204 53.1629C42.7927 53.8208 41.2368 54.3728 39.2718 54.8091L56.9553 73.123H39.7625C40.3097 73.123 10.9688 47.1194 10.9688 47.1194L10.9698 47.1184ZM26.4162 5C25.2351 8.7184 18.7696 10.0663 18.7696 10.0663C21.429 10.7161 23.8102 17.6421 19.0668 18.8944C14.3235 20.1466 11.7094 14.8506 13.482 10.6567C12.5277 10.8118 12.8048 11.385 10.0487 11.1856C7.29258 10.9861 6.57104 8.62068 5 9.53442C7.90225 15.0339 9.8713 20.34 12.7746 25.8385H26.4182H40.0618C42.9641 20.339 44.9332 15.0329 47.8364 9.53442C46.2654 8.62068 45.5438 10.9861 42.7877 11.1856C40.0316 11.385 40.3077 10.8108 39.3534 10.6567C41.126 14.8506 38.5119 20.1466 33.7686 18.8944C29.0252 17.6421 31.4064 10.7161 34.0658 10.0663C34.0658 10.0663 27.6003 8.7184 26.4192 5H26.4162ZM257.147 56.6184C262.369 61.3372 268.815 60.3821 268.815 64.2003C268.815 66.2151 266.227 66.7984 265.192 66.7984C256.535 66.7984 257.1 58.3693 253.76 58.3693C252.349 58.3693 251.784 59.8008 251.784 61.2324C251.784 63.9363 252.866 69.5557 255.124 70.9873C257.805 72.6304 263.121 73.532 266.226 73.532C277.187 73.532 281.703 66.5335 281.703 60.3307C281.703 56.3544 280.245 53.7039 277.328 51.5299C271.871 47.4478 265.426 48.561 265.426 44.3721C265.426 42.4631 266.978 41.7216 268.437 41.7216C273.329 41.7216 275.164 47.7651 278.315 47.7651C280.056 47.7651 281.091 45.9629 281.091 44.1596C281.091 39.7068 277.515 35.6237 275.916 35.6237C274.928 35.6237 274.269 36.3661 273.611 36.3661C272.906 36.3661 269.519 34.8822 266.508 34.8822C257.382 34.8822 252.677 41.7216 252.677 47.2352C252.677 51.0524 254.558 54.2862 257.146 56.6194L257.147 56.6184ZM227.545 54.5512C227.545 55.6644 229.003 56.3 229.803 56.3C233.003 56.3 238.178 48.0825 238.178 41.8798C238.178 38.2742 235.967 34.8812 232.58 34.8812C229.428 34.8812 227.17 37.5317 227.17 41.0839C227.17 45.9085 230.792 46.2268 230.792 48.1883C230.792 51.5289 227.546 53.4369 227.546 54.5501L227.545 54.5512ZM208.334 73.531C217.93 73.531 226.869 66.0025 226.869 54.6035C226.869 47.7641 221.883 34.8812 208.898 34.8812C198.643 34.8812 190.692 42.8338 190.692 54.0736C190.692 65.3659 198.407 73.531 208.333 73.531H208.334ZM214.779 59.959C214.779 62.8221 213.556 65.6318 210.687 65.6318C205.606 65.6318 202.783 52.9604 202.783 48.4542C202.783 45.8561 204.1 42.7814 206.735 42.7814C212.239 42.7814 214.779 55.1344 214.779 59.959ZM144.836 54.0736C144.836 64.7302 152.927 73.531 162.807 73.531C168.358 73.531 171.651 70.4564 173.251 70.4564C175.603 70.4564 177.768 65.5784 177.768 63.2462C177.768 61.9205 177.11 60.1182 175.745 60.1182C174.287 60.1182 173.393 63.7761 167.418 63.7761C160.832 63.7761 157.115 57.0959 157.115 49.2501C157.115 46.3336 158.621 42.5165 162.244 42.5165C170.617 42.5165 169.394 51.9006 174.239 51.9006C177.015 51.9006 178.615 49.3559 178.615 46.3336C178.615 40.4482 176.075 37.1086 174.098 37.1086C173.298 37.1086 173.016 37.4793 171.981 37.4793C170.758 37.4793 167.794 34.8812 163.184 34.8812C153.917 34.8812 144.837 43.2045 144.837 54.0736H144.836ZM99.626 54.0736C99.626 64.7302 107.717 73.531 117.597 73.531C123.149 73.531 126.441 70.4564 128.041 70.4564C130.393 70.4564 132.558 65.5784 132.558 63.2462C132.558 61.9205 131.9 60.1182 130.535 60.1182C129.077 60.1182 128.183 63.7761 122.209 63.7761C115.622 63.7761 111.906 57.0959 111.906 49.2501C111.906 46.3336 113.411 42.5165 117.034 42.5165C125.407 42.5165 124.185 51.9006 129.03 51.9006C131.805 51.9006 133.405 49.3559 133.405 46.3336C133.405 40.4482 130.865 37.1086 128.889 37.1086C128.089 37.1086 127.807 37.4793 126.772 37.4793C125.548 37.4793 122.584 34.8812 117.974 34.8812C108.707 34.8812 99.626 43.2045 99.626 54.0736ZM72.2768 56.8299C72.2768 64.2526 71.8062 66.2141 71.2419 66.9566C70.4891 67.964 68.8898 68.229 68.8898 69.9255C68.8898 73.3185 74.8173 73.3718 76.7934 73.3718C87.0964 73.3718 87.5197 70.9863 87.5197 69.3955C87.5197 67.7524 86.391 67.4865 85.215 66.6916C84.2738 66.0559 83.7094 66.2675 83.7094 56.8299V51.5813C83.7094 47.8699 83.7568 43.0987 84.6507 41.9322C85.7329 40.554 87.5207 40.6598 87.5207 38.7507C87.5207 35.1451 81.7343 35.0394 78.9117 35.0394C77.9704 35.0394 68.3739 35.0394 68.3739 38.8565C68.3739 40.8713 70.2089 41.0305 71.2902 42.5678C71.8072 43.3103 72.2778 44.8476 72.2778 51.5803V56.8289L72.2768 56.8299ZM24.2586 73.121H10.9708L10.735 57.647L24.2586 73.121ZM32.9583 48.5046C33.1589 48.5046 35.3094 46.8182 35.5119 46.5603C36.0692 45.852 36.3504 45.0501 36.3504 44.1404C36.3504 42.7955 35.911 41.7589 35.0333 41.0426C34.1555 40.3172 32.5089 39.9586 30.0853 39.9586H24.2597L32.9594 48.5046H32.9583Z" fill="#FFF6E8" stroke="#28050B" stroke-width="2.66783" stroke-miterlimit="22.9256" stroke-linecap="round" stroke-linejoin="round"/>
<path d="M24.5237 73.474H11.2358L11 58L24.5237 73.474Z" fill="#28050B" stroke="#28050B" stroke-width="2.66783" stroke-miterlimit="22.9256" stroke-linecap="round" stroke-linejoin="round"/>
</svg>
